<?xml version="1.0" encoding="UTF-8"?>
<svg width="185px" height="202px" viewBox="0 0 185 202" version="1.1" xmlns="http://www.w3.org/2000/svg" xmlns:xlink="http://www.w3.org/1999/xlink">
    <!-- Generator: Sketch 51.2 (57519) - http://www.bohemiancoding.com/sketch -->
    <title>Group 50</title>
    <desc>Created with Sketch.</desc>
    <defs>
        <polygon id="path-1" points="0 0.0824852912 174.024256 0.0824852912 174.024256 100.555591 0 100.555591"></polygon>
        <polygon id="path-3" points="0.178296673 0.0986210999 76.5262808 0.0986210999 76.5262808 44.0554542 0.178296673 44.0554542"></polygon>
        <polygon id="path-5" points="0.22325216 0.0453568754 11.0999914 0.0453568754 11.0999914 69.120667 0.22325216 69.120667"></polygon>
    </defs>
    <g id="Page-1" stroke="none" stroke-width="1" fill="none" fill-rule="evenodd">
        <g id="Browser-extension" transform="translate(-588.000000, -335.000000)">
            <g id="Group-50" transform="translate(680.000000, 436.234375) scale(-1, 1) translate(-680.000000, -436.234375) translate(587.000000, 335.234375)">
                <path d="M36.5712487,115.857355 L36.5146529,115.745367 C36.5062238,115.749381 36.4933793,115.753797 36.4845488,115.758212 C36.4801335,115.758212 36.4801335,115.762627 36.4761196,115.762627 L36.5712487,115.857355 Z" id="Stroke-1" stroke="#6D6E70"></path>
                <polygon id="Fill-3" fill="#A5CFE4" points="174.024377 50.1702032 87.0122284 100.918125 86.8717425 200.8622 173.952127 151.530778"></polygon>
                <polygon id="Fill-5" fill="#648393" points="0.0700021157 50.9122096 0.0700021157 151.061395 86.8019813 201.136188 86.8019813 100.986601"></polygon>
                <g id="Group-9" transform="translate(0.000000, 0.319104)">
                    <mask id="mask-2" fill="white">
                        <use xlink:href="#path-1"></use>
                    </mask>
                    <g id="Clip-8"></g>
                    <polygon id="Fill-7" fill="#C7DBE6" mask="url(#mask-2)" points="87.012108 0.0824852912 -4.01388278e-05 50.319038 87.012108 100.555591 174.024256 49.8510193"></polygon>
                </g>
                <polygon id="Fill-10" fill="#648393" points="130.466724 188.545882 119.655331 182.266162 119.654929 119.470572 130.531749 125.750291"></polygon>
                <path d="M119.65509,125.351111 L97.8886065,137.910149 L103.353508,141.065462 C106.702692,142.999351 110.828963,143.001759 114.180154,141.071081 L119.65509,137.918176 L119.65509,125.351111 Z" id="Fill-12" fill="#6D6E70"></path>
                <polygon id="Fill-14" fill="#6D6E70" points="169.767493 96.4237399 152.27138 106.512634 152.27138 119.071672 163.161445 112.79998"></polygon>
                <polygon id="Fill-16" fill="#C7DBE6" points="162.988567 106.911574 152.112149 100.631855 119.482493 119.470612 130.359313 125.750332"></polygon>
                <polygon id="Fill-18" fill="#4D4D4F" points="108.695303 175.986804 86.9420658 188.545842 65.188828 175.986804 65.188828 188.508513 86.9420658 201.067551 108.695303 188.545842"></polygon>
                <polygon id="Fill-20" fill="#4D4D4F" points="152.584222 150.949448 152.519598 163.508485 174.024377 151.073878 174.024377 138.39041"></polygon>
                <polygon id="Fill-22" fill="#4D4D4F" points="21.7528363 150.868287 21.8178612 163.427726 0.280169018 150.993119 0.280169018 138.471008"></polygon>
                <polygon id="Fill-24" fill="#A1B6C2" points="76.0652863 107.035844 76.0656877 157.147966 21.6827941 125.750171 10.8063759 106.911012 10.8709994 69.3960595"></polygon>
                <polygon id="Fill-26" fill="#C7DBE6" points="76.1358103 107.133823 87.0122284 101.016264 21.8179415 63.3764797 10.941122 69.4940384"></polygon>
                <g id="Group-30" transform="translate(108.374835, 6.339928)">
                    <mask id="mask-4" fill="white">
                        <use xlink:href="#path-3"></use>
                    </mask>
                    <g id="Clip-29"></g>
                    <polygon id="Fill-28" fill="#C7DBE6" mask="url(#mask-4)" points="65.6495415 44.0554542 76.5263611 37.7749318 11.2670492 0.0986210999 0.178296673 6.50036275"></polygon>
                </g>
                <polygon id="Fill-31" fill="#A5CFE4" points="76.0656476 157.107466 86.9420658 163.384376 86.9420658 100.874574 76.0652462 106.992534"></polygon>
                <g id="Group-35" transform="translate(173.801124, 44.070426)">
                    <mask id="mask-6" fill="white">
                        <use xlink:href="#path-5"></use>
                    </mask>
                    <g id="Clip-34"></g>
                    <polygon id="Fill-33" fill="#A5CFE4" mask="url(#mask-6)" points="0.22325216 69.120667 11.1000717 50.2815082 11.1000717 0.0453568754 0.22325216 6.32507649"></polygon>
                </g>
                <polygon id="Stroke-36" stroke="#6D6E70" points="87.012108 188.545882 87.012108 201.067591 108.764944 188.545882 108.764944 175.986844"></polygon>
                <polygon id="Fill-38" fill="#FFFFFF" points="163.167305 125.727051 152.182914 132.006771 152.182914 144.565808 162.98949 144.565808 173.93575 144.565808 162.98949 138.248358"></polygon>
                <polygon id="Fill-40" fill="#A1B6C2" points="130.531789 125.750171 130.466764 188.545762 163.161445 169.707406 163.161445 106.911414"></polygon>
                <polygon id="Fill-42" fill="#A1B6C2" points="173.935429 163.468106 174.075915 175.946464 151.939351 188.505502 152.004376 175.946063"></polygon>
                <polygon id="Fill-44" fill="#C7DBE6" points="173.935429 163.468106 163.301449 157.228926 130.531709 175.999046 152.004376 175.946063"></polygon>
                <polygon id="Fill-46" fill="#648393" points="152.098542 188.505502 130.625875 188.546043 130.690899 175.999046 152.163567 175.946063"></polygon>
                <polygon id="Fill-48" fill="#FFFFFF" points="119.548481 150.891808 108.564491 157.171528 108.564491 169.730566 119.370666 169.730566 130.317327 169.730566 119.370666 163.413116"></polygon>
            </g>
        </g>
    </g>
</svg>