<?xml version="1.0" encoding="UTF-8"?>
<svg width="40px" height="40px" viewBox="0 0 40 40" version="1.1" xmlns="http://www.w3.org/2000/svg" xmlns:xlink="http://www.w3.org/1999/xlink">
    <!-- Generator: Sketch 51.2 (57519) - http://www.bohemiancoding.com/sketch -->
    <title>icon</title>
    <desc>Created with Sketch.</desc>
    <defs></defs>
    <g id="icon" stroke="none" stroke-width="1" fill="none" fill-rule="evenodd">
        <g id="icon-2" fill="#01C4C8" fill-rule="nonzero">
            <g id="Subtract" transform="translate(4.157179, 4.046494)">
                <path d="M24.8114505,15.3467687 C24.8114505,20.5873046 20.5620751,24.8330758 15.3251434,24.8330758 C13.5446588,24.8330758 11.8795091,24.3429019 10.4558422,23.4887017 L6.24611326,27.6948265 C8.78708835,29.5654166 11.926364,30.6719122 15.3251434,30.6719122 C23.787852,30.6719122 30.6502869,23.8094773 30.6502869,15.3467687 C30.6502869,11.9479893 29.5437913,8.80871367 27.6732011,6.26773858 L23.4670764,10.4738633 C24.3212765,11.9011344 24.8114505,13.5662841 24.8114505,15.3467687 Z M24.3825483,2.98429416 L20.1728193,7.1904189 C18.7527566,6.3434272 17.0948154,5.86046172 15.3215392,5.86046172 C10.0810033,5.86046172 5.83523218,10.1098371 5.83523218,15.3467687 C5.83523218,17.120045 6.32180188,18.7779862 7.16518936,20.1980489 L2.95906462,24.4041736 C1.0992871,21.8668027 7.10542736e-15,18.7347355 7.10542736e-15,15.3467687 C7.10542736e-15,6.8840602 6.86243488,0.02162532 15.3251434,0.02162532 C18.7131102,0.02162532 21.8451774,1.12091242 24.3825483,2.98429416 Z" id="path0_fill"></path>
            </g>
            <g id="Ellipse_2" transform="translate(31.550873, 0.000000)">
                <path d="M8.00136839,3.99347576 C8.00136839,6.1992584 6.21367528,7.98695151 4.00789264,7.98695151 C1.80211,7.98695151 0.0180211,6.1992584 0.0180211,3.99347576 C0.0180211,1.78769312 1.80571422,0 4.00789264,0 C6.21007106,0 8.00136839,1.78769312 8.00136839,3.99347576 Z" id="path1_fill"></path>
            </g>
            <g id="Ellipse_2.1" transform="translate(0.000000, 31.550873)">
                <path d="M7.98334729,4.00789264 C7.98334729,6.21367528 6.19565418,8.00136839 3.98987154,8.00136839 C1.7840889,8.00136839 0,6.21367528 0,4.00789264 C0,1.80211 1.78769312,0.01441688 3.99347576,0.01441688 C6.1992584,0.01441688 7.98334729,1.80571422 7.98334729,4.00789264 Z" id="path1_fill_1_"></path>
            </g>
        </g>
    </g>
</svg>