<?xml version="1.0" encoding="UTF-8"?>
<svg width="300px" height="38px" viewBox="0 0 300 38" version="1.1" xmlns="http://www.w3.org/2000/svg" xmlns:xlink="http://www.w3.org/1999/xlink">
    <!-- Generator: Sketch 51.2 (57519) - http://www.bohemiancoding.com/sketch -->
    <title>logo</title>
    <desc>Created with Sketch.</desc>
    <defs>
        <polygon id="path-1" points="0 37.6842857 299.13871 37.6842857 299.13871 0.000414746544 0 0.000414746544"></polygon>
    </defs>
    <g id="Page-1" stroke="none" stroke-width="1" fill="none" fill-rule="evenodd">
        <g id="Browser-extension" transform="translate(-213.000000, -41.000000)">
            <g id="logo" transform="translate(213.000000, 40.939500)">
                <path d="M58.1742857,11.1041475 L68.46553,11.1041475 C69.003318,11.1041475 69.5162212,11.2299539 70.0028571,11.4815668 C70.4881106,11.7345622 70.9139171,12.0732719 71.278894,12.4976959 C71.643871,12.9235023 71.9341935,13.4322581 72.1512442,14.0225806 C72.3696774,14.6129032 72.4775115,15.2474654 72.4775115,15.9235023 C72.4775115,16.5317972 72.3738249,17.1096774 72.1650691,17.6571429 C71.9563134,18.2032258 71.6701382,18.6898618 71.3051613,19.1156682 C70.9401843,19.5414747 70.5185253,19.8801843 70.0415668,20.1317972 C69.5632258,20.3834101 69.0558525,20.5092166 68.516682,20.5092166 L65.7821198,20.5092166 L65.7821198,18.8682028 L68.2042396,18.8682028 C68.6217512,18.8682028 68.9770507,18.7728111 69.2729032,18.5820276 C69.5687558,18.3912442 69.8148387,18.1479263 70.0152995,17.8520737 C70.2143779,17.5562212 70.3581567,17.2354839 70.4452535,16.8884793 C70.5323502,16.5414747 70.5752074,16.2110599 70.5752074,15.8986175 C70.5752074,15.5502304 70.5185253,15.1907834 70.4065438,14.8175115 C70.2931797,14.4442396 70.1328111,14.1041475 69.9240553,13.8013825 C69.716682,13.497235 69.4595392,13.2456221 69.1553917,13.0451613 C68.8512442,12.8460829 68.5083871,12.7451613 68.1268203,12.7451613 L59.997788,12.7451613 L59.997788,27.362212 L58.1742857,27.362212 L58.1742857,11.1041475 Z" id="Fill-1" fill="#000000"></path>
                <path d="M77.4535023,21.7212442 C77.8005069,22.4940553 78.2691705,23.1756221 78.8608756,23.7659447 C79.4511982,24.3562673 80.1410599,24.8263134 80.9318433,25.173318 C81.7212442,25.5217051 82.5604147,25.6945161 83.4452074,25.6945161 C84.332765,25.6945161 85.170553,25.5217051 85.9599539,25.173318 C86.7507373,24.8263134 87.446129,24.3562673 88.0447465,23.7659447 C88.6433641,23.1756221 89.1175576,22.4940553 89.4645622,21.7212442 C89.8115668,20.9484332 89.9857604,20.127235 89.9857604,19.2590323 C89.9857604,18.4088018 89.8115668,17.5876037 89.4645622,16.7968203 C89.1175576,16.0074194 88.6475115,15.3161751 88.0571889,14.7258525 C87.4668664,14.13553 86.7770046,13.6613364 85.9862212,13.3060369 C85.1954378,12.9493548 84.3576498,12.7710138 83.4728571,12.7710138 C82.586682,12.7710138 81.7433641,12.9493548 80.9442857,13.3060369 C80.1452074,13.6613364 79.4511982,14.13553 78.8608756,14.7258525 C78.2691705,15.3161751 77.8005069,16.0074194 77.4535023,16.7968203 C77.1064977,17.5876037 76.9323041,18.4088018 76.9323041,19.2590323 C76.9323041,20.127235 77.1064977,20.9484332 77.4535023,21.7212442 M75.8387558,16.0419816 C76.2728571,15.0424424 76.8590323,14.1742396 77.5972811,13.4359908 C78.33553,12.6977419 79.2078802,12.1115668 80.2157143,11.6774654 C81.2221659,11.2433641 82.2991244,11.0263134 83.4452074,11.0263134 C84.5926728,11.0263134 85.6696313,11.2433641 86.6760829,11.6774654 C87.6839171,12.1115668 88.5562673,12.6977419 89.2945161,13.4359908 C90.032765,14.1742396 90.6189401,15.0424424 91.0530415,16.0419816 C91.4871429,17.0401382 91.705576,18.1046544 91.705576,19.232765 C91.705576,20.3622581 91.4871429,21.4253917 91.0530415,22.4249309 C90.6189401,23.4230876 90.032765,24.2912903 89.2945161,25.0295392 C88.5562673,25.767788 87.6839171,26.3553456 86.6760829,26.7880645 C85.6696313,27.2221659 84.5926728,27.4392166 83.4452074,27.4392166 C82.2991244,27.4392166 81.2221659,27.2221659 80.2157143,26.7880645 C79.2078802,26.3553456 78.33553,25.767788 77.5972811,25.0295392 C76.8590323,24.2912903 76.2728571,23.4230876 75.8387558,22.4249309 C75.4046544,21.4253917 75.1876037,20.3622581 75.1876037,19.232765 C75.1876037,18.1046544 75.4046544,17.0401382 75.8387558,16.0419816" id="Fill-3" fill="#000000"></path>
                <path d="M102.542903,18.8686175 L105.043825,18.8686175 C105.461336,18.8686175 105.816636,18.7732258 106.112488,18.5810599 C106.406959,18.3902765 106.654424,18.148341 106.854885,17.8524885 C107.053963,17.5566359 107.197742,17.2358986 107.284839,16.8875115 C107.371935,16.5405069 107.414793,16.2114747 107.414793,15.8990323 C107.414793,15.5506452 107.358111,15.1911982 107.244747,14.8165438 C107.132765,14.4432719 106.972396,14.1045622 106.763641,13.8004147 C106.554885,13.4976498 106.299124,13.2460369 105.994977,13.045576 C105.690829,12.8464977 105.347972,12.745576 104.965023,12.745576 L96.8373733,12.745576 L96.8373733,27.3626267 L95.013871,27.3626267 L95.013871,11.1045622 L105.305115,11.1045622 C105.842903,11.1045622 106.354424,11.2303687 106.84106,11.4819816 C107.327696,11.7335945 107.753502,12.0723041 108.118479,12.4981106 C108.483456,12.9239171 108.773779,13.4312903 108.990829,14.0229954 C109.20788,14.613318 109.317097,15.2464977 109.317097,15.9239171 C109.317097,16.532212 109.212028,17.1100922 109.003272,17.6575576 C108.795899,18.2036406 108.512488,18.6902765 108.157189,19.1160829 C107.800507,19.5418894 107.384378,19.8805991 106.907419,20.132212 C106.429078,20.3838249 105.920323,20.5096313 105.382535,20.5096313 L108.848433,27.3626267 L106.893594,27.3626267 L102.542903,18.8686175 Z" id="Fill-5" fill="#000000"></path>
                <polygon id="Fill-7" fill="#000000" points="126.485945 11.1041475 126.485945 12.7451613 120.285484 12.7451613 120.285484 27.362212 118.460599 27.362212 118.460599 12.7451613 112.286406 12.7451613 112.286406 11.1041475"></polygon>
                <polygon id="Fill-9" fill="#000000" points="142.534424 27.3619355 140.502166 27.3619355 133.936728 14.1522581 128.28235 25.7209217 135.942719 25.7209217 137.062535 27.3619355 125.417834 27.3619355 133.936728 10.2453456"></polygon>
                <polygon id="Fill-11" fill="#000000" points="145.452719 27.3619355 145.452719 11.103871 147.276221 11.103871 147.276221 25.7209217 157.827373 25.7209217 157.827373 27.3619355"></polygon>
                <polygon id="Fill-13" fill="#000000" points="170.619677 27.3619355 170.619677 11.103871 173.668065 11.103871 183.957926 25.8246083 183.957926 11.103871 185.782811 11.103871 185.782811 27.3619355 182.916912 27.3619355 172.44318 12.6149309 172.44318 27.3619355"></polygon>
                <mask id="mask-2" fill="white">
                    <use xlink:href="#path-1"></use>
                </mask>
                <g id="Clip-16"></g>
                <path d="M193.80553,20.5096313 L201.595853,20.5096313 L201.595853,18.8686175 L193.80553,18.8686175 L193.80553,20.5096313 Z M189.429954,27.3626267 L189.429954,11.1045622 L201.805991,11.1045622 L201.805991,12.745576 L191.253456,12.745576 L191.253456,25.7202304 L201.805991,25.7202304 L201.805991,27.3626267 L189.429954,27.3626267 Z" id="Fill-15" fill="#000000" mask="url(#mask-2)"></path>
                <polygon id="Fill-17" fill="#000000" mask="url(#mask-2)" points="219.573733 11.1041475 219.573733 12.7451613 213.373272 12.7451613 213.373272 27.362212 211.548387 27.362212 211.548387 12.7451613 205.374194 12.7451613 205.374194 11.1041475"></polygon>
                <polygon id="Fill-18" fill="#000000" mask="url(#mask-2)" points="224.965991 11.1041475 224.965991 25.8774194 232.756313 10.2442396 240.675207 26.0073733 240.675207 11.1041475 242.500092 11.1041475 242.500092 27.362212 239.321751 27.362212 232.756313 14.0737327 226.268295 27.362212 223.142488 27.362212 223.142488 11.1041475"></polygon>
                <path d="M248.07553,21.7212442 C248.422535,22.4940553 248.891198,23.1756221 249.482903,23.7659447 C250.071843,24.3562673 250.761705,24.8263134 251.553871,25.173318 C252.343272,25.5217051 253.18106,25.6945161 254.067235,25.6945161 C254.95341,25.6945161 255.791198,25.5217051 256.580599,25.173318 C257.372765,24.8263134 258.066774,24.3562673 258.665392,23.7659447 C259.265392,23.1756221 259.738203,22.4940553 260.08659,21.7212442 C260.432212,20.9484332 260.606406,20.127235 260.606406,19.2590323 C260.606406,18.4088018 260.432212,17.5876037 260.08659,16.7968203 C259.738203,16.0074194 259.269539,15.3161751 258.679217,14.7258525 C258.087512,14.13553 257.39765,13.6613364 256.608249,13.3060369 C255.817465,12.9493548 254.979677,12.7710138 254.094885,12.7710138 C253.207327,12.7710138 252.365392,12.9493548 251.566313,13.3060369 C250.767235,13.6613364 250.071843,14.13553 249.482903,14.7258525 C248.891198,15.3161751 248.422535,16.0074194 248.07553,16.7968203 C247.727143,17.5876037 247.554332,18.4088018 247.554332,19.2590323 C247.554332,20.127235 247.727143,20.9484332 248.07553,21.7212442 M246.459401,16.0419816 C246.894885,15.0424424 247.479677,14.1742396 248.219309,13.4359908 C248.957558,12.6977419 249.829908,12.1115668 250.836359,11.6774654 C251.844194,11.2433641 252.921152,11.0263134 254.067235,11.0263134 C255.213318,11.0263134 256.290276,11.2433641 257.298111,11.6774654 C258.304562,12.1115668 259.178295,12.6977419 259.916544,13.4359908 C260.654793,14.1742396 261.239585,15.0424424 261.675069,16.0419816 C262.109171,17.0401382 262.327604,18.1046544 262.327604,19.232765 C262.327604,20.3622581 262.109171,21.4253917 261.675069,22.4249309 C261.239585,23.4230876 260.654793,24.2912903 259.916544,25.0295392 C259.178295,25.767788 258.304562,26.3553456 257.298111,26.7880645 C256.290276,27.2221659 255.213318,27.4392166 254.067235,27.4392166 C252.921152,27.4392166 251.844194,27.2221659 250.836359,26.7880645 C249.829908,26.3553456 248.957558,25.767788 248.219309,25.0295392 C247.479677,24.2912903 246.894885,23.4230876 246.459401,22.4249309 C246.026682,21.4253917 245.808249,20.3622581 245.808249,19.232765 C245.808249,18.1046544 246.026682,17.0401382 246.459401,16.0419816" id="Fill-19" fill="#000000" mask="url(#mask-2)"></path>
                <path d="M273.164101,18.8686175 L275.665023,18.8686175 C276.081152,18.8686175 276.437834,18.7732258 276.733687,18.5810599 C277.028157,18.3902765 277.277005,18.148341 277.476083,17.8524885 C277.675161,17.5566359 277.81894,17.2358986 277.906037,16.8875115 C277.991751,16.5405069 278.035991,16.2114747 278.035991,15.8990323 C278.035991,15.5506452 277.979309,15.1911982 277.865945,14.8165438 C277.752581,14.4432719 277.593594,14.1045622 277.384839,13.8004147 C277.176083,13.4976498 276.920323,13.2460369 276.616175,13.045576 C276.312028,12.8464977 275.967788,12.745576 275.587604,12.745576 L267.458571,12.745576 L267.458571,27.3626267 L265.635069,27.3626267 L265.635069,11.1045622 L275.926313,11.1045622 C276.464101,11.1045622 276.977005,11.2303687 277.462258,11.4819816 C277.948894,11.7335945 278.3747,12.0723041 278.739677,12.4981106 C279.104654,12.9239171 279.394977,13.4312903 279.612028,14.0229954 C279.829078,14.613318 279.936912,15.2464977 279.936912,15.9239171 C279.936912,16.532212 279.833226,17.1100922 279.625853,17.6575576 C279.415714,18.2036406 279.133687,18.6902765 278.77977,19.1160829 C278.423088,19.5418894 278.005576,19.8805991 277.527235,20.132212 C277.050276,20.3838249 276.541521,20.5096313 276.003733,20.5096313 L279.469631,27.3626267 L277.514793,27.3626267 L273.164101,18.8686175 Z" id="Fill-20" fill="#000000" mask="url(#mask-2)"></path>
                <path d="M299.139816,11.1041475 L295.152719,19.3119816 L299.139816,27.362212 L297.15871,27.362212 L293.120461,19.3119816 L297.15871,11.1041475 L299.139816,11.1041475 Z M283.378065,27.362212 L283.378065,11.1041475 L285.200184,11.1041475 L285.200184,18.4769585 L290.724608,18.4769585 L290.724608,20.1193548 L285.200184,20.1193548 L285.200184,27.362212 L283.378065,27.362212 Z" id="Fill-21" fill="#000000" mask="url(#mask-2)"></path>
                <path d="M29.9184332,32.9040553 C32.9599078,32.9040553 35.4069124,31.9487558 36.9926267,30.1404608 C38.5479263,28.3681106 39.1437788,25.9404608 38.7193548,23.1215668 C38.6751152,22.8312442 38.3695853,22.5215668 38.037788,22.4289401 C37.7032258,22.3363134 37.4682028,22.496682 37.5124424,22.7870046 C37.9050691,25.3847005 37.3534562,27.6215668 35.9198157,29.2556682 C34.4585253,30.9215668 32.2036866,31.802212 29.4,31.802212 C26.0170507,31.802212 22.20553,30.5068203 18.6705069,28.1524424 C18.3511521,27.9409217 18.00553,27.9478341 17.8976959,28.1648848 C17.7884793,28.383318 17.9571429,28.7330876 18.2751152,28.9446083 C22.1129032,31.4980645 26.2465438,32.9040553 29.9184332,32.9040553" id="Fill-22" fill="#000000" mask="url(#mask-2)"></path>
                <path d="M37.7205069,21.1501382 C37.7467742,21.1529032 37.7702765,21.1542857 37.7951613,21.1542857 C38.066129,21.1542857 38.2085253,20.9524424 38.1145161,20.6759447 C37.9099078,20.0717972 37.6596774,19.4552074 37.3721198,18.842765 C37.228341,18.537235 36.866129,18.2911521 36.5619816,18.2911521 C36.2578341,18.2911521 36.1264977,18.537235 36.2702765,18.842765 C36.5357143,19.4082028 36.7665899,19.9764055 36.9559908,20.5335484 C37.0582949,20.8349309 37.4011521,21.1114286 37.7205069,21.1501382" id="Fill-23" fill="#000000" mask="url(#mask-2)"></path>
                <path d="M9.13036866,15.0504608 C8.70317972,12.452765 9.24511521,10.1177419 10.6566359,8.47534562 C12.1179263,6.77903226 14.3865899,5.88179724 17.2179263,5.88179724 C20.7584793,5.88179724 24.7234562,7.28225806 28.3829032,9.82603687 C28.6981106,10.04447 29.0492627,10.05 29.1681567,9.83847926 C29.2870507,9.62695853 29.1280645,9.27857143 28.8142396,9.06013825 C24.8437327,6.29930876 20.5414286,4.77995392 16.7008756,4.77995392 C13.6276037,4.77995392 11.1667742,5.75322581 9.5824424,7.59470046 C8.04926267,9.37534562 7.46170507,11.909447 7.92483871,14.728341 C7.97322581,15.0200461 8.28152074,15.3269585 8.61470046,15.4168203 C8.67552995,15.4320276 8.73359447,15.4403226 8.78612903,15.4403226 C9.02253456,15.4403226 9.16907834,15.2882488 9.13036866,15.0504608" id="Fill-24" fill="#000000" mask="url(#mask-2)"></path>
                <path d="M8.89824885,16.5335945 C8.57889401,16.4948848 8.40193548,16.7064055 8.50423963,17.0091705 C8.70884793,17.6119355 8.95907834,18.2299078 9.24663594,18.8423502 C9.39041475,19.1464977 9.75262673,19.3925806 10.0567742,19.3925806 C10.3609217,19.3925806 10.4922581,19.1464977 10.3484793,18.8423502 C10.0830415,18.2769124 9.8521659,17.7073272 9.66276498,17.1501843 C9.56046083,16.8488018 9.21760369,16.5723041 8.89824885,16.5335945" id="Fill-25" fill="#000000" mask="url(#mask-2)"></path>
                <path d="M13.8449309,3.70437788 C13.8725806,3.70437788 13.8988479,3.70299539 13.9237327,3.69884793 C14.6177419,3.58824885 15.3546083,3.53156682 16.1135945,3.53156682 C16.4177419,3.53156682 16.5490783,3.28548387 16.406682,2.98133641 C16.2629032,2.67718894 15.9006912,2.4297235 15.5965438,2.4297235 C14.7822581,2.4297235 13.9928571,2.490553 13.2490783,2.609447 C12.9698157,2.65368664 12.8937788,2.9343318 13.0804147,3.2343318 C13.2490783,3.50806452 13.5767281,3.70437788 13.8449309,3.70437788" id="Fill-26" fill="#000000" mask="url(#mask-2)"></path>
                <path d="M5.59520737,8.8435023 C4.73115207,11.7315207 5.18046083,15.1891244 6.89751152,18.841659 C8.97124424,23.2545622 12.6445161,27.3964977 17.2399078,30.5029493 C17.3975115,30.6080184 17.5620276,30.6619355 17.7030415,30.6619355 C17.8440553,30.6619355 17.9601843,30.6066359 18.0168664,30.4988018 C18.1288479,30.2817512 17.9643318,29.9333641 17.6477419,29.7204608 C13.3606452,26.8213825 9.93345622,22.9587097 7.99935484,18.841659 C6.39843318,15.4338249 5.97677419,12.2098618 6.78414747,9.51539171 C7.56525346,6.90525346 9.50211982,4.98221198 12.2380645,4.09880184 C12.4924424,4.01585253 12.5200922,3.71308756 12.301659,3.42 C12.0804608,3.12691244 11.6975115,2.95548387 11.4417512,3.03843318 C8.5081106,3.98543779 6.4316129,6.04672811 5.59520737,8.8435023" id="Fill-27" fill="#000000" mask="url(#mask-2)"></path>
                <path d="M32.6954378,33.9854378 C32.0014286,34.0960369 31.2645622,34.1527189 30.505576,34.1527189 C30.2000461,34.1527189 30.0700922,34.3988018 30.2124885,34.7029493 C30.3562673,35.0070968 30.7184793,35.2531797 31.0226267,35.2531797 C31.83553,35.2531797 32.6263134,35.1937327 33.3687097,35.0748387 C33.6479724,35.0292166 33.7253917,34.7499539 33.5387558,34.4485714 C33.3535023,34.1485714 32.9747005,33.9398157 32.6954378,33.9854378" id="Fill-28" fill="#000000" mask="url(#mask-2)"></path>
                <path d="M41.0734562,28.6688018 C41.8683871,25.8153456 41.401106,22.4171889 39.72,18.8420737 C37.6462673,14.4291705 33.9743779,10.2886175 29.3803687,7.1821659 C29.0637788,6.96926267 28.7153917,6.97064516 28.6034101,7.18631336 C28.4900461,7.40198157 28.6559447,7.75175115 28.9725346,7.96465438 C33.2596313,10.8623502 36.6854378,14.725023 38.6195392,18.8420737 C40.1872811,22.1766359 40.622765,25.346682 39.8817512,28.0079724 C39.1642396,30.5835484 37.3296774,32.5231797 34.7195392,33.4688018 C34.4720737,33.5586636 34.4541014,33.8669585 34.6808295,34.1586636 C34.8647005,34.3950691 35.1536406,34.5457604 35.3886636,34.5457604 C35.4425806,34.5457604 35.4937327,34.5374654 35.5407373,34.5208756 C38.338894,33.506129 40.3034101,31.4282488 41.0734562,28.6688018" id="Fill-29" fill="#000000" mask="url(#mask-2)"></path>
                <path d="M5.65050691,18.842212 C5.50672811,18.5380645 5.14451613,18.2919816 4.84175115,18.2919816 C4.5362212,18.2919816 4.40626728,18.5380645 4.54866359,18.842212 C6.39981567,22.7781567 9.37493088,26.5454378 13.1560369,29.7376037 C13.3343779,29.8882949 13.5417512,29.9670968 13.7131797,29.9670968 C13.8237788,29.9670968 13.9191705,29.9339171 13.9841475,29.8647926 C14.1486636,29.6878341 14.0435945,29.344977 13.7505069,29.096129 C10.1933641,26.0933641 7.3924424,22.5472811 5.65050691,18.842212" id="Fill-30" fill="#000000" mask="url(#mask-2)"></path>
                <path d="M19.0475115,32.7980184 C17.9290783,32.1620737 16.827235,31.4487097 15.7696313,30.6800461 C15.4599539,30.4547005 15.1018894,30.4367281 14.973318,30.6399539 C14.8433641,30.8445622 14.9885253,31.1929493 15.2995853,31.4182949 C16.4221659,32.2353456 17.5931336,32.9929493 18.7806912,33.6676037 C18.9175576,33.7464055 19.054424,33.7837327 19.173318,33.7837327 C19.3364516,33.7837327 19.465023,33.7104608 19.5078802,33.5708295 C19.5811521,33.3302765 19.3751613,32.9846544 19.0475115,32.7980184" id="Fill-31" fill="#000000" mask="url(#mask-2)"></path>
                <path d="M31.6086636,36.5007373 C28.3874654,36.5007373 24.8247926,35.6256221 21.304977,33.9707834 C20.9717972,33.8131797 20.6717972,33.8975115 20.637235,34.1574194 C20.6026728,34.4173272 20.8446083,34.7560369 21.1791705,34.9136406 C24.9201843,36.6721659 28.7054378,37.6025806 32.1270968,37.6025806 C32.4298618,37.6025806 32.5611982,37.3564977 32.4174194,37.0509677 C32.275023,36.7468203 31.9128111,36.5007373 31.6086636,36.5007373" id="Fill-32" fill="#000000" mask="url(#mask-2)"></path>
                <path d="M35.9734562,11.5537327 C38.0928111,13.8486636 39.7739171,16.3011982 40.9683871,18.842212 C41.1107834,19.1463594 41.4743779,19.3924424 41.7771429,19.3924424 C42.0812903,19.3924424 42.2126267,19.1463594 42.0702304,18.842212 C40.801106,16.142212 39.0149309,13.5376037 36.7628571,11.0975115 C34.5868203,8.74175115 32.0900461,6.66387097 29.3458065,4.92193548 C29.0236866,4.71870968 28.6835945,4.73529954 28.5854378,4.96064516 C28.4872811,5.18737327 28.6683871,5.53437788 28.9905069,5.73898618 C31.5757604,7.37861751 33.9246083,9.3362212 35.9734562,11.5537327" id="Fill-33" fill="#000000" mask="url(#mask-2)"></path>
                <path d="M23.876682,3.08198157 C24.8554839,3.48290323 25.8411982,3.94741935 26.8061751,4.46447005 C26.936129,4.53359447 27.063318,4.56677419 27.1752995,4.56677419 C27.3467281,4.56677419 27.4780645,4.48658986 27.5153917,4.33589862 C27.5748387,4.08843318 27.3564055,3.74419355 27.0259908,3.56861751 C26.0001843,3.01976959 24.9522581,2.52483871 23.9126267,2.09903226 C23.576682,1.9621659 23.2974194,2.07 23.2863594,2.34096774 C23.276682,2.61331797 23.5407373,2.94373272 23.876682,3.08198157" id="Fill-34" fill="#000000" mask="url(#mask-2)"></path>
                <path d="M15.0100922,1.18313364 C16.9621659,1.18313364 19.0262212,1.4997235 21.148341,2.12184332 C21.2160829,2.14258065 21.2810599,2.15225806 21.3405069,2.15225806 C21.57,2.15225806 21.7151613,2.00709677 21.686129,1.77898618 C21.6488018,1.49004608 21.3474194,1.17760369 21.0128571,1.079447 C18.7580184,0.417235023 16.5653917,0.0826728111 14.4930415,0.0826728111 C14.188894,0.0826728111 14.0575576,0.32875576 14.2013364,0.632903226 C14.3437327,0.937050691 14.7059447,1.18313364 15.0100922,1.18313364" id="Fill-35" fill="#000000" mask="url(#mask-2)"></path>
                <path d="M1.09880184,6.34645161 C1.23981567,6.42940092 1.38082949,6.46949309 1.50248848,6.46949309 C1.66285714,6.46949309 1.79004608,6.39898618 1.83428571,6.26488479 C2.57529954,4.080553 3.90801843,2.32202765 5.7964977,1.04046083 C6.00110599,0.900829493 5.95133641,0.569032258 5.68451613,0.298064516 C5.41907834,0.0284792627 5.03751152,-0.0779723502 4.83152074,0.0616589862 C2.84073733,1.41373272 1.43474654,3.26764977 0.652258065,5.57087558 C0.573456221,5.80866359 0.772534562,6.15428571 1.09880184,6.34645161" id="Fill-36" fill="#000000" mask="url(#mask-2)"></path>
                <path d="M0.581612903,9.77571429 C0.683917051,9.81857143 0.780691244,9.83930876 0.867788018,9.83930876 C1.06548387,9.83930876 1.2064977,9.73285714 1.21617512,9.54483871 C1.24520737,9.01258065 1.30603687,8.48585253 1.39589862,7.97986175 C1.44152074,7.72410138 1.20926267,7.38400922 0.876082949,7.2181106 C0.542903226,7.05221198 0.235990783,7.12548387 0.190368664,7.38124424 C0.0949769585,7.91488479 0.032764977,8.47064516 0.000967741935,9.03193548 C-0.0142396313,9.30152074 0.245668203,9.63470046 0.581612903,9.77571429" id="Fill-37" fill="#000000" mask="url(#mask-2)"></path>
                <path d="M45.5199539,31.3379724 C45.1936866,31.1458065 44.8646544,31.1831336 44.78447,31.4195392 C44.0434562,33.603871 42.7107373,35.3610138 40.8222581,36.6439631 C40.6176498,36.782212 40.6674194,37.1153917 40.9342396,37.3863594 C41.1194931,37.5757604 41.3641935,37.6835945 41.5646544,37.6835945 C41.6489862,37.6835945 41.725023,37.6642396 41.787235,37.622765 C43.7780184,36.2706912 45.1840092,34.4167742 45.9664977,32.1121659 C46.0452995,31.8757604 45.8462212,31.5287558 45.5199539,31.3379724" id="Fill-38" fill="#000000" mask="url(#mask-2)"></path>
                <path d="M46.0397696,27.7513825 C45.7038249,27.6117512 45.4217972,27.7182028 45.4093548,27.9891705 C45.3830876,28.5739631 45.3194931,29.1504608 45.2227189,29.7034562 C45.1757143,29.9592166 45.4093548,30.3006912 45.7425346,30.4652074 C45.8641935,30.5246544 45.9817051,30.5536866 46.0840092,30.5536866 C46.2637327,30.5536866 46.3992166,30.4652074 46.4282488,30.3020737 C46.5319355,29.7186636 46.5982949,29.1103687 46.6259447,28.4937788 C46.6383871,28.2228111 46.3757143,27.8910138 46.0397696,27.7513825" id="Fill-39" fill="#000000" mask="url(#mask-2)"></path>
                <path d="M18.3225346,8.23119816 C24.1732258,8.23119816 31.17,12.991106 33.9197696,18.8417972 C36.6695392,24.6924885 34.1464977,29.4523963 28.2958065,29.4523963 C22.4451152,29.4523963 15.448341,24.6924885 12.6985714,18.8417972 C9.94880184,12.991106 12.4718433,8.23119816 18.3225346,8.23119816 M28.8142396,30.5542396 C35.2718433,30.5542396 38.0561751,25.3007834 35.0216129,18.8417972 C31.9870507,12.3841935 24.2630876,7.12935484 17.8054839,7.12935484 C11.3478802,7.12935484 8.5621659,12.3841935 11.5967281,18.8417972 C14.6326728,25.3007834 22.3552535,30.5542396 28.8142396,30.5542396" id="Fill-40" fill="#000000" mask="url(#mask-2)"></path>
                <path d="M3.82119816,8.62548387 C3.99124424,8.62548387 4.12119816,8.54668203 4.15990783,8.40013825 C4.54423963,6.94576037 5.22165899,5.66695853 6.17419355,4.59967742 C6.33456221,4.41995392 6.22534562,4.0743318 5.93087558,3.82963134 C5.63502304,3.58493088 5.26589862,3.53101382 5.10552995,3.71211982 C4.09354839,4.84576037 3.37465438,6.20474654 2.96543779,7.74898618 C2.90046083,7.99368664 3.11612903,8.33792627 3.44516129,8.51764977 C3.57788018,8.59092166 3.7078341,8.62548387 3.82119816,8.62548387" id="Fill-41" fill="#000000" mask="url(#mask-2)"></path>
                <path d="M42.4592627,29.2837327 C42.0569585,30.8017051 41.3380645,32.126129 40.320553,33.2210599 C40.1560369,33.3980184 40.261106,33.7408756 40.5541935,33.988341 C40.7311521,34.1390323 40.9385253,34.2192166 41.1099539,34.2192166 C41.220553,34.2192166 41.3173272,34.1860369 41.3823041,34.1169124 C42.4620276,32.9542396 43.2265438,31.5482488 43.6537327,29.9362673 C43.7187097,29.6901843 43.5030415,29.3459447 43.1740092,29.1662212 C42.8435945,28.9851152 42.5242396,29.0390323 42.4592627,29.2837327" id="Fill-42" fill="#000000" mask="url(#mask-2)"></path>
            </g>
        </g>
    </g>
</svg>