<?xml version="1.0" encoding="UTF-8"?>
<svg width="40px" height="40px" viewBox="0 0 40 40" version="1.1" xmlns="http://www.w3.org/2000/svg" xmlns:xlink="http://www.w3.org/1999/xlink">
    <!-- Generator: Sketch 51.2 (57519) - http://www.bohemiancoding.com/sketch -->
    <title>qtum</title>
    <desc>Created with Sketch.</desc>
    <defs></defs>
    <g id="qtum" stroke="none" stroke-width="1" fill="none" fill-rule="evenodd">
        <g id="qtum-1" transform="translate(0.000000, 1.818182)" fill="#2E9AD0" fill-rule="nonzero">
            <g id="Lines" transform="translate(0.940960, 0.723816)">
                <path d="M23.1910561,34.1134355 L12.2469622,34.1134355 L3.41641026,27.6425228 L0.0506671013,17.1906236 L3.4091721,6.73872447 L12.239724,0.267811821 L23.1910561,0.267811821 L32.021608,6.73872447 L35.380113,17.1906236 L32.021608,27.6425228 L31.8985593,27.7655715 L23.1910561,34.1134355 Z M12.4930595,33.3606671 L22.9449587,33.3606671 L31.4063646,27.14309 L34.641821,17.1906236 L31.4063646,7.23815732 L22.9449587,1.02058018 L12.4930595,1.02058018 L4.03889179,7.23815732 L0.803435463,17.1906236 L4.03889179,27.14309 L12.4930595,33.3606671 Z" id="Shape"></path>
                <polygon id="Shape" points="36.6323142 32.3690396 31.5294133 27.7655715 26.5495611 25.8981269 17.7190091 27.0200413 8.76540852 25.8981269 3.78555628 27.7655715 3.53945893 27.0200413 8.63512169 25.029548 8.76540852 25.029548 17.7190091 26.2745111 26.6798479 25.029548 26.8028966 25.1525967 32.0288462 27.14309 37.1245089 31.8696067"></polygon>
                <polygon id="Shape" points="22.9449587 34.4825815 17.7190091 27.2661386 12.2469622 34.4825815 8.26597566 25.6520296 9.01150587 25.2756454 12.4930595 32.9915211 17.7190091 25.8981269 22.82191 32.9915211 26.3034637 25.2756454 31.0299804 15.8226119 32.1518948 27.3891873 31.4063646 27.3891873 30.5305476 18.5586354 27.0489939 25.6520296"></polygon>
                <polygon id="Shape" points="0.550099957 16.8142395 35.1340156 16.8142395 35.1340156 17.5597697 0.550099957 17.5597697"></polygon>
                <polygon id="Shape" points="31.0299804 18.5586354 26.6798479 9.97418079 22.9449587 18.0592025 17.7190091 8.72921773 12.3700109 18.0592025 8.63512169 9.97418079 4.28498914 18.5586354 3.28612342 7.11510865 4.03889179 6.99205997 4.78442199 15.9456606 8.63512169 8.36007171 12.3700109 16.4450934 17.7190091 7.23815732 22.82191 16.4450934 26.6798479 8.36007171 30.5305476 15.8226119 31.1530291 6.99205997 31.9057975 6.99205997"></polygon>
                <path d="M26.3034637,9.35169926 L22.82191,1.51277488 L17.7190091,8.72921773 L12.4930595,1.51277488 L9.01150587,9.35169926 L8.38902434,8.98255324 L12.2469622,0.021714472 L17.7190091,7.361206 L22.9449587,0.021714472 L27.0489939,8.98255324 L26.3034637,9.35169926 Z M31.4063646,27.3891873 L30.5305476,18.5586354 L26.6798479,26.2745111 L22.82191,18.0592025 L17.7190091,27.3891873 L12.3700109,18.0592025 L8.63512169,26.2745111 L4.78442199,18.5586354 L4.03889179,27.3891873 L3.28612342,27.3891873 L4.28498914,15.8226119 L8.63512169,24.5301152 L12.3700109,16.4450934 L17.7190091,25.7750782 L22.9449587,16.4450934 L26.6798479,24.6531638 L31.0299804,15.8226119 L32.1518948,27.3891873 L31.4063646,27.3891873 Z" id="Shape"></path>
                <polygon id="Shape" points="26.6798479 9.60503477 17.5959605 8.36007171 8.63512169 9.60503477 3.53945893 7.361206 3.78555628 6.61567579 8.76540852 8.72921773 17.5959605 7.6145415 26.6798479 8.72921773 31.5294133 6.61567579 31.9057975 7.361206"></polygon>
            </g>
            <g id="Circles">
                <circle id="Oval" cx="13.3109713" cy="34.460867" r="1.49106041"></circle>
                <circle id="Oval" cx="23.7628705" cy="34.460867" r="1.49106041"></circle>
                <circle id="Oval" cx="13.3109713" cy="1.49106041" r="1.49106041"></circle>
                <circle id="Oval" cx="23.7628705" cy="1.49106041" r="1.49106041"></circle>
                <circle id="Oval" cx="32.4703738" cy="7.71587571" r="1.49106041"></circle>
                <circle id="Oval" cx="4.60346806" cy="7.71587571" r="1.49106041"></circle>
                <circle id="Oval" cx="4.60346806" cy="28.2432899" r="1.49106041"></circle>
                <circle id="Oval" cx="1.49106041" cy="17.9144394" r="1.49106041"></circle>
                <circle id="Oval" cx="35.9519274" cy="17.9144394" r="1.49106041"></circle>
                <circle id="Oval" cx="31.7248435" cy="17.9144394" r="1.49106041"></circle>
                <circle id="Oval" cx="5.47204694" cy="17.9144394" r="1.49106041"></circle>
                <circle id="Oval" cx="13.3109713" cy="17.9144394" r="1.49106041"></circle>
                <circle id="Oval" cx="23.7628705" cy="17.9144394" r="1.49106041"></circle>
                <circle id="Oval" transform="translate(18.660310, 8.709061) rotate(-80.781000) translate(-18.660310, -8.709061) " cx="18.6603098" cy="8.70906124" r="1.49106041"></circle>
                <circle id="Oval" cx="9.57608214" cy="9.95246632" r="1.49106041"></circle>
                <circle id="Oval" cx="27.6208083" cy="9.95246632" r="1.49106041"></circle>
                <circle id="Oval" cx="18.6599696" cy="27.3674728" r="1.49106041"></circle>
                <circle id="Oval" cx="9.57608214" cy="26.1225098" r="1.49106041"></circle>
                <circle id="Oval" cx="27.6208083" cy="26.1225098" r="1.49106041"></circle>
                <circle id="Oval" cx="37.819372" cy="32.8467579" r="1.99049326"></circle>
            </g>
        </g>
    </g>
</svg>