<?xml version="1.0" encoding="UTF-8"?>
<svg width="22px" height="21px" viewBox="0 0 22 21" version="1.1" xmlns="http://www.w3.org/2000/svg" xmlns:xlink="http://www.w3.org/1999/xlink">
    <!-- Generator: Sketch 51.3 (57544) - http://www.bohemiancoding.com/sketch -->
    <title>te</title>
    <desc>Created with Sketch.</desc>
    <defs></defs>
    <g id="Extension" stroke="none" stroke-width="1" fill="none" fill-rule="evenodd">
        <g id="extension-page" transform="translate(-108.000000, -514.000000)" fill="#FFFFFF">
            <g id="te" transform="translate(108.000000, 514.000000)">
                <g id="Te">
                    <path d="M3.3,9.67544 L6.948,11.06424 C7.2112,11.16504 7.4112,11.38664 7.484,11.65864 L7.9472,13.41304 C7.9672,13.20904 8.06,13.01864 8.208,12.87704 L17.328,4.08984 L3.3,9.67544 Z M8.092,14.00424 L8.7432,16.49384 L10.1616,15.48104 L8.3088,14.22184 C8.2224,14.16424 8.1496,14.09144 8.092,14.00504 L8.092,14.00424 Z M12.1888,14.74264 L17.0968,18.07224 L19.7464,4.15944 L10.1768,13.38264 L12.16,14.72824 C12.1744,14.72824 12.1744,14.74344 12.1888,14.74344 L12.1888,14.74264 Z M17.7048,20.40344 C17.5296,20.40664 17.3584,20.35624 17.2128,20.25864 L11.6968,16.52344 L8.7432,18.65144 C8.3552,18.93144 7.8128,18.84504 7.5328,18.45704 C7.4696,18.37064 7.424,18.27384 7.3968,18.17144 L5.9064,12.52744 L0.5936,10.50024 C0.1456,10.32264 -0.0728,9.81464 0.1056,9.36664 C0.1944,9.14424 0.3712,8.96744 0.5936,8.87944 L20.7736,0.84504 C20.8656,0.80584 20.9632,0.78184 21.0632,0.77304 L21.1632,0.77304 C21.3696,0.78824 21.5648,0.87464 21.7136,1.01944 L21.7568,1.06184 C21.8832,1.20184 21.96,1.38024 21.9736,1.56904 L21.9736,1.71384 C21.9736,1.74264 21.9592,1.78584 21.9592,1.81544 L18.5592,19.70824 C18.5048,19.99544 18.3096,20.23624 18.0384,20.34824 C17.9328,20.38984 17.8192,20.40904 17.7056,20.40584 L17.7048,20.40344 Z" id="Fill-27"></path>
                </g>
            </g>
        </g>
    </g>
</svg>